<mxfile host="app.diagrams.net" agent="Mozilla/5.0 (Windows NT 10.0; Win64; x64) AppleWebKit/537.36 (KHTML, like Gecko) Chrome/122.0.0.0 Safari/537.36" version="26.1.1">
  <diagram name="Page-1" id="_lWx4vNkMa3o32yIFXoy">
    <mxGraphModel dx="1050" dy="530" grid="1" gridSize="10" guides="1" tooltips="1" connect="1" arrows="1" fold="1" page="1" pageScale="1" pageWidth="850" pageHeight="1100" math="0" shadow="0">
      <root>
        <mxCell id="0" />
        <mxCell id="1" parent="0" />
        <mxCell id="NPuptDD1DYBg_vC4bvml-15" style="edgeStyle=orthogonalEdgeStyle;rounded=0;orthogonalLoop=1;jettySize=auto;html=1;" parent="1" target="NPuptDD1DYBg_vC4bvml-16" edge="1">
          <mxGeometry relative="1" as="geometry">
            <mxPoint x="740" y="290" as="targetPoint" />
            <mxPoint x="740" y="230" as="sourcePoint" />
          </mxGeometry>
        </mxCell>
        <mxCell id="NPuptDD1DYBg_vC4bvml-9" style="edgeStyle=orthogonalEdgeStyle;rounded=0;orthogonalLoop=1;jettySize=auto;html=1;entryX=0;entryY=0.5;entryDx=0;entryDy=0;" parent="1" source="NPuptDD1DYBg_vC4bvml-3" target="NPuptDD1DYBg_vC4bvml-8" edge="1">
          <mxGeometry relative="1" as="geometry" />
        </mxCell>
        <mxCell id="NPuptDD1DYBg_vC4bvml-3" value="Time series&amp;nbsp;&lt;div&gt;Database&lt;/div&gt;&lt;div&gt;With activity label&lt;/div&gt;" style="shape=cylinder3;whiteSpace=wrap;html=1;boundedLbl=1;backgroundOutline=1;size=15;" parent="1" vertex="1">
          <mxGeometry x="282" y="135" width="110" height="110" as="geometry" />
        </mxCell>
        <mxCell id="NPuptDD1DYBg_vC4bvml-11" style="edgeStyle=orthogonalEdgeStyle;rounded=0;orthogonalLoop=1;jettySize=auto;html=1;entryX=0;entryY=0.5;entryDx=0;entryDy=0;" parent="1" source="NPuptDD1DYBg_vC4bvml-8" edge="1">
          <mxGeometry relative="1" as="geometry">
            <mxPoint x="700" y="190" as="targetPoint" />
          </mxGeometry>
        </mxCell>
        <mxCell id="NPuptDD1DYBg_vC4bvml-18" style="edgeStyle=orthogonalEdgeStyle;rounded=0;orthogonalLoop=1;jettySize=auto;html=1;entryX=0;entryY=0.5;entryDx=0;entryDy=0;" parent="1" source="NPuptDD1DYBg_vC4bvml-8" target="NPuptDD1DYBg_vC4bvml-17" edge="1">
          <mxGeometry relative="1" as="geometry">
            <Array as="points">
              <mxPoint x="570" y="75" />
            </Array>
            <mxPoint x="720" y="50" as="targetPoint" />
          </mxGeometry>
        </mxCell>
        <mxCell id="NPuptDD1DYBg_vC4bvml-8" value="Selected&amp;nbsp;&lt;div&gt;Data&lt;/div&gt;" style="whiteSpace=wrap;html=1;aspect=fixed;" parent="1" vertex="1">
          <mxGeometry x="530" y="150" width="80" height="80" as="geometry" />
        </mxCell>
        <mxCell id="NPuptDD1DYBg_vC4bvml-10" value="retrieved&lt;div&gt;Dataset&lt;/div&gt;" style="text;html=1;align=center;verticalAlign=middle;whiteSpace=wrap;rounded=0;" parent="1" vertex="1">
          <mxGeometry x="424" y="150" width="60" height="30" as="geometry" />
        </mxCell>
        <mxCell id="NPuptDD1DYBg_vC4bvml-12" value="Learn&lt;div&gt;Activity&lt;/div&gt;" style="text;html=1;align=center;verticalAlign=middle;whiteSpace=wrap;rounded=0;" parent="1" vertex="1">
          <mxGeometry x="620" y="138" width="60" height="30" as="geometry" />
        </mxCell>
        <mxCell id="NPuptDD1DYBg_vC4bvml-20" style="edgeStyle=orthogonalEdgeStyle;rounded=0;orthogonalLoop=1;jettySize=auto;html=1;entryX=0.635;entryY=1.028;entryDx=0;entryDy=0;entryPerimeter=0;" parent="1" source="NPuptDD1DYBg_vC4bvml-16" target="NPuptDD1DYBg_vC4bvml-17" edge="1">
          <mxGeometry relative="1" as="geometry">
            <Array as="points">
              <mxPoint x="810" y="300" />
              <mxPoint x="810" y="70" />
            </Array>
          </mxGeometry>
        </mxCell>
        <mxCell id="NPuptDD1DYBg_vC4bvml-16" value="Generate&lt;div&gt;Activity scenarios&lt;/div&gt;" style="rounded=0;whiteSpace=wrap;html=1;" parent="1" vertex="1">
          <mxGeometry x="700" y="270" width="80" height="60" as="geometry" />
        </mxCell>
        <mxCell id="NPuptDD1DYBg_vC4bvml-23" style="edgeStyle=orthogonalEdgeStyle;rounded=0;orthogonalLoop=1;jettySize=auto;html=1;entryX=0.5;entryY=0;entryDx=0;entryDy=0;exitX=1;exitY=0.5;exitDx=0;exitDy=0;" parent="1" source="NPuptDD1DYBg_vC4bvml-17" target="NPuptDD1DYBg_vC4bvml-22" edge="1">
          <mxGeometry relative="1" as="geometry">
            <Array as="points">
              <mxPoint x="920" y="75" />
            </Array>
          </mxGeometry>
        </mxCell>
        <mxCell id="NPuptDD1DYBg_vC4bvml-17" value="Scenario LSTM" style="whiteSpace=wrap;html=1;aspect=fixed;" parent="1" vertex="1">
          <mxGeometry x="770" y="35" width="80" height="80" as="geometry" />
        </mxCell>
        <mxCell id="NPuptDD1DYBg_vC4bvml-19" value="Learn feature representation" style="text;html=1;align=center;verticalAlign=middle;whiteSpace=wrap;rounded=0;" parent="1" vertex="1">
          <mxGeometry x="550" y="30" width="120" height="30" as="geometry" />
        </mxCell>
        <mxCell id="NPuptDD1DYBg_vC4bvml-21" value="Inference on feature representation" style="text;html=1;align=center;verticalAlign=middle;whiteSpace=wrap;rounded=0;" parent="1" vertex="1">
          <mxGeometry x="830" y="190" width="120" height="30" as="geometry" />
        </mxCell>
        <mxCell id="NPuptDD1DYBg_vC4bvml-22" value="&lt;div&gt;Sensor data generator&lt;/div&gt;&lt;div&gt;LSTM&lt;/div&gt;" style="whiteSpace=wrap;html=1;aspect=fixed;" parent="1" vertex="1">
          <mxGeometry x="880" y="100" width="80" height="80" as="geometry" />
        </mxCell>
        <mxCell id="NPuptDD1DYBg_vC4bvml-24" value="Generate synthetic scenario" style="text;html=1;align=center;verticalAlign=middle;whiteSpace=wrap;rounded=0;" parent="1" vertex="1">
          <mxGeometry x="731" y="5" width="160" height="30" as="geometry" />
        </mxCell>
        <mxCell id="NPuptDD1DYBg_vC4bvml-26" style="edgeStyle=orthogonalEdgeStyle;rounded=0;orthogonalLoop=1;jettySize=auto;html=1;entryX=0.5;entryY=1;entryDx=0;entryDy=0;" parent="1" source="NPuptDD1DYBg_vC4bvml-25" target="NPuptDD1DYBg_vC4bvml-17" edge="1">
          <mxGeometry relative="1" as="geometry">
            <Array as="points">
              <mxPoint x="810" y="410" />
            </Array>
          </mxGeometry>
        </mxCell>
        <mxCell id="NPuptDD1DYBg_vC4bvml-25" value="Generate&lt;div&gt;Activity scenarios&lt;/div&gt;" style="rounded=0;whiteSpace=wrap;html=1;" parent="1" vertex="1">
          <mxGeometry x="700" y="380" width="80" height="60" as="geometry" />
        </mxCell>
        <mxCell id="NPuptDD1DYBg_vC4bvml-28" style="edgeStyle=orthogonalEdgeStyle;rounded=0;orthogonalLoop=1;jettySize=auto;html=1;entryX=0;entryY=0.5;entryDx=0;entryDy=0;" parent="1" source="NPuptDD1DYBg_vC4bvml-27" target="NPuptDD1DYBg_vC4bvml-25" edge="1">
          <mxGeometry relative="1" as="geometry" />
        </mxCell>
        <mxCell id="NPuptDD1DYBg_vC4bvml-27" value="Simulation&lt;div&gt;Environment&lt;/div&gt;" style="rounded=0;whiteSpace=wrap;html=1;" parent="1" vertex="1">
          <mxGeometry x="560" y="380" width="80" height="60" as="geometry" />
        </mxCell>
        <mxCell id="NPuptDD1DYBg_vC4bvml-31" style="edgeStyle=orthogonalEdgeStyle;rounded=0;orthogonalLoop=1;jettySize=auto;html=1;entryX=0;entryY=0.5;entryDx=0;entryDy=0;" parent="1" source="NPuptDD1DYBg_vC4bvml-29" target="NPuptDD1DYBg_vC4bvml-30" edge="1">
          <mxGeometry relative="1" as="geometry" />
        </mxCell>
        <mxCell id="df0VdvyvzbTZm8iGTRP1-9" style="edgeStyle=orthogonalEdgeStyle;rounded=0;orthogonalLoop=1;jettySize=auto;html=1;entryX=0.5;entryY=1;entryDx=0;entryDy=0;" edge="1" parent="1" source="NPuptDD1DYBg_vC4bvml-29" target="df0VdvyvzbTZm8iGTRP1-8">
          <mxGeometry relative="1" as="geometry">
            <Array as="points">
              <mxPoint x="300" y="370" />
            </Array>
          </mxGeometry>
        </mxCell>
        <mxCell id="df0VdvyvzbTZm8iGTRP1-18" style="edgeStyle=orthogonalEdgeStyle;rounded=0;orthogonalLoop=1;jettySize=auto;html=1;" edge="1" parent="1" source="NPuptDD1DYBg_vC4bvml-29">
          <mxGeometry relative="1" as="geometry">
            <mxPoint x="880" y="373.199951171875" as="targetPoint" />
            <Array as="points">
              <mxPoint x="300" y="510" />
              <mxPoint x="881" y="510" />
            </Array>
          </mxGeometry>
        </mxCell>
        <mxCell id="NPuptDD1DYBg_vC4bvml-29" value="natural-language scenario description" style="rounded=0;whiteSpace=wrap;html=1;" parent="1" vertex="1">
          <mxGeometry x="240" y="380" width="120" height="60" as="geometry" />
        </mxCell>
        <mxCell id="NPuptDD1DYBg_vC4bvml-32" style="edgeStyle=orthogonalEdgeStyle;rounded=0;orthogonalLoop=1;jettySize=auto;html=1;entryX=0;entryY=0.5;entryDx=0;entryDy=0;" parent="1" source="NPuptDD1DYBg_vC4bvml-30" target="NPuptDD1DYBg_vC4bvml-27" edge="1">
          <mxGeometry relative="1" as="geometry" />
        </mxCell>
        <mxCell id="NPuptDD1DYBg_vC4bvml-30" value="Text to sim" style="rounded=0;whiteSpace=wrap;html=1;" parent="1" vertex="1">
          <mxGeometry x="409" y="370" width="90" height="80" as="geometry" />
        </mxCell>
        <mxCell id="df0VdvyvzbTZm8iGTRP1-1" value="Classifications" style="text;html=1;align=center;verticalAlign=middle;whiteSpace=wrap;rounded=0;" vertex="1" parent="1">
          <mxGeometry x="710" y="450" width="60" height="30" as="geometry" />
        </mxCell>
        <mxCell id="df0VdvyvzbTZm8iGTRP1-2" value="Probabilities" style="text;html=1;align=center;verticalAlign=middle;whiteSpace=wrap;rounded=0;" vertex="1" parent="1">
          <mxGeometry x="670" y="238" width="60" height="30" as="geometry" />
        </mxCell>
        <mxCell id="df0VdvyvzbTZm8iGTRP1-6" value="Search" style="text;html=1;align=center;verticalAlign=middle;whiteSpace=wrap;rounded=0;" vertex="1" parent="1">
          <mxGeometry x="350" y="290" width="110" height="30" as="geometry" />
        </mxCell>
        <mxCell id="df0VdvyvzbTZm8iGTRP1-7" style="edgeStyle=orthogonalEdgeStyle;rounded=0;orthogonalLoop=1;jettySize=auto;html=1;entryX=0.5;entryY=1;entryDx=0;entryDy=0;entryPerimeter=0;" edge="1" parent="1" source="NPuptDD1DYBg_vC4bvml-25" target="NPuptDD1DYBg_vC4bvml-3">
          <mxGeometry relative="1" as="geometry">
            <Array as="points">
              <mxPoint x="740" y="340" />
              <mxPoint x="337" y="340" />
            </Array>
          </mxGeometry>
        </mxCell>
        <mxCell id="df0VdvyvzbTZm8iGTRP1-8" value="Context: location, time of day, broad activities, likelihood" style="rounded=1;whiteSpace=wrap;html=1;" vertex="1" parent="1">
          <mxGeometry x="190" y="260" width="120" height="80" as="geometry" />
        </mxCell>
        <mxCell id="df0VdvyvzbTZm8iGTRP1-10" style="edgeStyle=orthogonalEdgeStyle;rounded=0;orthogonalLoop=1;jettySize=auto;html=1;entryX=0.5;entryY=1;entryDx=0;entryDy=0;entryPerimeter=0;" edge="1" parent="1" source="df0VdvyvzbTZm8iGTRP1-8" target="NPuptDD1DYBg_vC4bvml-3">
          <mxGeometry relative="1" as="geometry">
            <Array as="points">
              <mxPoint x="337" y="300" />
            </Array>
          </mxGeometry>
        </mxCell>
        <mxCell id="df0VdvyvzbTZm8iGTRP1-11" value="Context dependent model" style="whiteSpace=wrap;html=1;aspect=fixed;" vertex="1" parent="1">
          <mxGeometry x="700" y="150" width="80" height="80" as="geometry" />
        </mxCell>
        <mxCell id="df0VdvyvzbTZm8iGTRP1-12" value="120*13&lt;div&gt;6 probs&lt;/div&gt;&lt;div&gt;1 agitation&lt;/div&gt;&lt;div&gt;6 noise&lt;/div&gt;" style="text;html=1;align=center;verticalAlign=middle;whiteSpace=wrap;rounded=0;" vertex="1" parent="1">
          <mxGeometry x="540" y="250" width="60" height="30" as="geometry" />
        </mxCell>
        <mxCell id="df0VdvyvzbTZm8iGTRP1-14" value="120*6&lt;div&gt;6 probs&lt;/div&gt;" style="text;html=1;align=center;verticalAlign=middle;whiteSpace=wrap;rounded=0;" vertex="1" parent="1">
          <mxGeometry x="746" y="238" width="60" height="30" as="geometry" />
        </mxCell>
        <mxCell id="df0VdvyvzbTZm8iGTRP1-16" value="120*6&lt;div&gt;6 one-hot&lt;/div&gt;" style="text;html=1;align=center;verticalAlign=middle;whiteSpace=wrap;rounded=0;" vertex="1" parent="1">
          <mxGeometry x="790" y="430" width="60" height="30" as="geometry" />
        </mxCell>
        <mxCell id="df0VdvyvzbTZm8iGTRP1-20" style="edgeStyle=orthogonalEdgeStyle;rounded=0;orthogonalLoop=1;jettySize=auto;html=1;entryX=0.5;entryY=1;entryDx=0;entryDy=0;" edge="1" parent="1" source="df0VdvyvzbTZm8iGTRP1-19" target="NPuptDD1DYBg_vC4bvml-17">
          <mxGeometry relative="1" as="geometry">
            <Array as="points">
              <mxPoint x="810" y="355" />
            </Array>
          </mxGeometry>
        </mxCell>
        <mxCell id="df0VdvyvzbTZm8iGTRP1-19" value="Agitation label" style="text;html=1;align=center;verticalAlign=middle;whiteSpace=wrap;rounded=0;" vertex="1" parent="1">
          <mxGeometry x="850" y="340" width="60" height="30" as="geometry" />
        </mxCell>
        <mxCell id="df0VdvyvzbTZm8iGTRP1-21" value="120*13&lt;div&gt;6 activities&lt;/div&gt;&lt;div&gt;6 probs&lt;/div&gt;&lt;div&gt;1 agitation&lt;/div&gt;" style="text;html=1;align=center;verticalAlign=middle;whiteSpace=wrap;rounded=0;" vertex="1" parent="1">
          <mxGeometry x="425" y="215" width="60" height="30" as="geometry" />
        </mxCell>
      </root>
    </mxGraphModel>
  </diagram>
</mxfile>
